<svg width="15" height="15" viewBox="0 0 15 15" fill="none" xmlns="http://www.w3.org/2000/svg">
<g id="leaf 1" clip-path="url(#clip0_1_24)">
<g id="Group">
<g id="Group_2">
<path id="Vector" d="M13.8237 1.0146C13.4548 0.906644 4.43176 0.00829428 1.26292 4.28944C-0.14052 6.186 -0.161602 8.78587 1.19259 12.0163C0.849075 12.7293 0.548349 13.4803 0.303268 14.2728C0.228756 14.5137 0.363533 14.769 0.604076 14.8433C0.648919 14.8572 0.694337 14.8637 0.739181 14.8637C0.933649 14.8637 1.1142 14.7381 1.17447 14.5425C3.58968 6.73405 11.4386 2.95644 13.8455 2.00211C14.0798 1.90917 14.3928 1.18117 13.8237 1.0146Z" fill="#84829A"/>
</g>
</g>
<g id="Group_3">
<g id="Group_4">
<path id="Vector_2" d="M2.64111 12.9934C3.94751 13.5415 5.25372 13.8224 6.46841 13.8224C7.56022 13.8224 8.57841 13.5979 9.45582 13.1427C11.2216 12.2266 12.3007 10.4745 12.5763 8.07497C12.857 5.62954 13.2065 4.09781 13.4981 3.16077C10.9028 4.35793 5.33797 7.46105 2.64111 12.9934Z" fill="#84829A"/>
</g>
</g>
</g>
<defs>
<clipPath id="clip0_1_24">
<rect width="14" height="14" fill="white" transform="translate(0.169189 0.86377)"/>
</clipPath>
</defs>
</svg>
