<svg width="15" height="15" viewBox="0 0 15 15" fill="none" xmlns="http://www.w3.org/2000/svg">
<g id="map 1" clip-path="url(#clip0_1_38)">
<g id="Group">
<g id="Group_2">
<path id="Vector" d="M13.6699 0.86377C13.5923 0.86374 13.5157 0.881787 13.4462 0.916503L9.65728 2.81148L5.37285 0.907011C5.36585 0.904023 5.35785 0.903496 5.35035 0.900507C5.33107 0.8933 5.31136 0.887295 5.29135 0.882519C5.27145 0.877158 5.25124 0.872969 5.23085 0.87001C5.19025 0.86667 5.14944 0.86667 5.10886 0.87001C5.08847 0.872969 5.06825 0.877158 5.04836 0.882519C5.02835 0.887295 5.00864 0.8933 4.98936 0.900507C4.98186 0.903496 4.97386 0.903994 4.96686 0.907011L0.466929 2.90699C0.286287 2.9872 0.169893 3.16632 0.169922 3.36396V14.3638C0.17001 14.533 0.255585 14.6906 0.397409 14.7828C0.539262 14.8751 0.718175 14.8894 0.87289 14.8208L5.16983 12.9108L9.46676 14.8208C9.47426 14.8238 9.48226 14.8208 9.48976 14.8253C9.61081 14.8794 9.74977 14.8763 9.86824 14.8168C9.87624 14.8133 9.88523 14.8168 9.89323 14.8113L13.8932 12.8113C14.0627 12.7266 14.1697 12.5533 14.1697 12.3638V1.36401C14.1698 1.08786 13.9461 0.863887 13.6699 0.86377ZM4.66985 12.0388L1.1699 13.5943V3.68897L4.66985 2.13348V12.0388ZM9.16978 13.5943L5.66983 12.0388V2.13348L9.16978 3.68894V13.5943ZM13.1697 12.0548L10.1698 13.5548V3.67295L13.1697 2.17297V12.0548Z" fill="#84829A"/>
</g>
</g>
</g>
<defs>
<clipPath id="clip0_1_38">
<rect width="14" height="14" fill="white" transform="translate(0.169189 0.86377)"/>
</clipPath>
</defs>
</svg>
