<svg width="81" height="80" viewBox="0 0 81 80" fill="none" xmlns="http://www.w3.org/2000/svg">
<rect width="81" height="80" fill="#F5F5F5"/>
<g id="Day 02-Assignment with responsive design (More complex)(Design to Code)">
<path d="M-694.667 -1426C-694.667 -1427.1 -693.771 -1428 -692.667 -1428H3839.33C3840.44 -1428 3841.33 -1427.1 3841.33 -1426V3623C3841.33 3624.1 3840.44 3625 3839.33 3625H-692.667C-693.771 3625 -694.667 3624.1 -694.667 3623V-1426Z" fill="black"/>
<path d="M-692.667 -1427H3839.33V-1429H-692.667V-1427ZM3840.33 -1426V3623H3842.33V-1426H3840.33ZM3839.33 3624H-692.667V3626H3839.33V3624ZM-693.667 3623V-1426H-695.667V3623H-693.667ZM-692.667 3624C-693.219 3624 -693.667 3623.55 -693.667 3623H-695.667C-695.667 3624.66 -694.324 3626 -692.667 3626V3624ZM3840.33 3623C3840.33 3623.55 3839.89 3624 3839.33 3624V3626C3840.99 3626 3842.33 3624.66 3842.33 3623H3840.33ZM3839.33 -1427C3839.89 -1427 3840.33 -1426.55 3840.33 -1426H3842.33C3842.33 -1427.66 3840.99 -1429 3839.33 -1429V-1427ZM-692.667 -1429C-694.323 -1429 -695.667 -1427.66 -695.667 -1426H-693.667C-693.667 -1426.55 -693.219 -1427 -692.667 -1427V-1429Z" fill="white" fill-opacity="0.1"/>
<g id="Home Page" clip-path="url(#clip0_0_1)">
<rect width="1920" height="4362" transform="translate(-439.667 -1205)" fill="white"/>
<g id="Rectangle 36" filter="url(#filter0_d_0_1)">
<rect x="-183.667" y="-32" width="448" height="360" rx="8" fill="white"/>
</g>
<g id="streamline:money-bank-institution-money-saving-bank-payment-finance">
<g id="Group">
<path id="Vector" d="M73.4192 31.4384H7.61888C4.50143 31.4384 3.16539 28.0002 5.61481 26.3656L38.5149 4.55257C39.1224 4.19078 39.8143 4 40.519 4C41.2238 4 41.9157 4.19078 42.5231 4.55257L75.4232 26.3656C77.8727 28.0002 76.5366 31.4384 73.4192 31.4384Z" stroke="#5D55FF" stroke-width="4" stroke-linecap="round" stroke-linejoin="round"/>
<path id="Vector_2" d="M73.9193 62.4388H7.11693C5.57968 62.4388 4.3335 63.7006 4.3335 65.2571V73.7117C4.3335 75.2682 5.57968 76.53 7.11693 76.53H73.9193C75.4565 76.53 76.7027 75.2682 76.7027 73.7117V65.2571C76.7027 63.7006 75.4565 62.4388 73.9193 62.4388Z" stroke="#5D55FF" stroke-width="4" stroke-linecap="round" stroke-linejoin="round"/>
<path id="Vector_3" d="M12.6836 31.4385V62.4389M26.6007 31.4385V62.4389M40.5179 31.4385V62.4389M54.435 31.4385V62.4389M68.3522 31.4385V62.4389" stroke="#5D55FF" stroke-width="4" stroke-linecap="round" stroke-linejoin="round"/>
</g>
</g>
</g>
</g>
<defs>
<filter id="filter0_d_0_1" x="-235.667" y="-60" width="552" height="464" filterUnits="userSpaceOnUse" color-interpolation-filters="sRGB">
<feFlood flood-opacity="0" result="BackgroundImageFix"/>
<feColorMatrix in="SourceAlpha" type="matrix" values="0 0 0 0 0 0 0 0 0 0 0 0 0 0 0 0 0 0 127 0" result="hardAlpha"/>
<feMorphology radius="12" operator="erode" in="SourceAlpha" result="effect1_dropShadow_0_1"/>
<feOffset dy="24"/>
<feGaussianBlur stdDeviation="32"/>
<feComposite in2="hardAlpha" operator="out"/>
<feColorMatrix type="matrix" values="0 0 0 0 0.10196 0 0 0 0 0.0942535 0 0 0 0 0.254167 0 0 0 0.06 0"/>
<feBlend mode="normal" in2="BackgroundImageFix" result="effect1_dropShadow_0_1"/>
<feBlend mode="normal" in="SourceGraphic" in2="effect1_dropShadow_0_1" result="shape"/>
</filter>
<clipPath id="clip0_0_1">
<rect width="1920" height="4362" fill="white" transform="translate(-439.667 -1205)"/>
</clipPath>
</defs>
</svg>
