<svg width="141" height="26" viewBox="0 0 141 26" fill="none" xmlns="http://www.w3.org/2000/svg">
<path d="M4.3495 16.336H9.8695V19H0.989496V2.248H4.3495V16.336ZM24.3651 12.064C24.3651 12.544 24.3331 12.976 24.2691 13.36H14.5491C14.6291 14.32 14.9651 15.072 15.5571 15.616C16.1491 16.16 16.8771 16.432 17.7411 16.432C18.9891 16.432 19.8771 15.896 20.4051 14.824H24.0291C23.6451 16.104 22.9091 17.16 21.8211 17.992C20.7331 18.808 19.3971 19.216 17.8131 19.216C16.5331 19.216 15.3811 18.936 14.3571 18.376C13.3491 17.8 12.5571 16.992 11.9811 15.952C11.4211 14.912 11.1411 13.712 11.1411 12.352C11.1411 10.976 11.4211 9.768 11.9811 8.728C12.5411 7.688 13.3251 6.888 14.3331 6.328C15.3411 5.768 16.5011 5.488 17.8131 5.488C19.0771 5.488 20.2051 5.76 21.1971 6.304C22.2051 6.848 22.9811 7.624 23.5251 8.632C24.0851 9.624 24.3651 10.768 24.3651 12.064ZM20.8851 11.104C20.8691 10.24 20.5571 9.552 19.9491 9.04C19.3411 8.512 18.5971 8.248 17.7171 8.248C16.8851 8.248 16.1811 8.504 15.6051 9.016C15.0451 9.512 14.7011 10.208 14.5731 11.104H20.8851ZM32.0256 5.488C33.0176 5.488 33.8896 5.688 34.6416 6.088C35.3936 6.472 35.9856 6.976 36.4176 7.6V5.704H39.8016V19.096C39.8016 20.328 39.5536 21.424 39.0576 22.384C38.5616 23.36 37.8176 24.128 36.8256 24.688C35.8336 25.264 34.6336 25.552 33.2256 25.552C31.3376 25.552 29.7856 25.112 28.5696 24.232C27.3696 23.352 26.6896 22.152 26.5296 20.632H29.8656C30.0416 21.24 30.4176 21.72 30.9936 22.072C31.5856 22.44 32.2976 22.624 33.1296 22.624C34.1056 22.624 34.8976 22.328 35.5056 21.736C36.1136 21.16 36.4176 20.28 36.4176 19.096V17.032C35.9856 17.656 35.3856 18.176 34.6176 18.592C33.8656 19.008 33.0016 19.216 32.0256 19.216C30.9056 19.216 29.8816 18.928 28.9536 18.352C28.0256 17.776 27.2896 16.968 26.7456 15.928C26.2176 14.872 25.9536 13.664 25.9536 12.304C25.9536 10.96 26.2176 9.768 26.7456 8.728C27.2896 7.688 28.0176 6.888 28.9296 6.328C29.8576 5.768 30.8896 5.488 32.0256 5.488ZM36.4176 12.352C36.4176 11.536 36.2576 10.84 35.9376 10.264C35.6176 9.672 35.1856 9.224 34.6416 8.92C34.0976 8.6 33.5136 8.44 32.8896 8.44C32.2656 8.44 31.6896 8.592 31.1616 8.896C30.6336 9.2 30.2016 9.648 29.8656 10.24C29.5456 10.816 29.3856 11.504 29.3856 12.304C29.3856 13.104 29.5456 13.808 29.8656 14.416C30.2016 15.008 30.6336 15.464 31.1616 15.784C31.7056 16.104 32.2816 16.264 32.8896 16.264C33.5136 16.264 34.0976 16.112 34.6416 15.808C35.1856 15.488 35.6176 15.04 35.9376 14.464C36.2576 13.872 36.4176 13.168 36.4176 12.352ZM42.2192 12.304C42.2192 10.96 42.4832 9.768 43.0112 8.728C43.5552 7.688 44.2832 6.888 45.1952 6.328C46.1232 5.768 47.1552 5.488 48.2912 5.488C49.2832 5.488 50.1472 5.688 50.8832 6.088C51.6352 6.488 52.2352 6.992 52.6832 7.6V5.704H56.0672V19H52.6832V17.056C52.2512 17.68 51.6512 18.2 50.8832 18.616C50.1312 19.016 49.2592 19.216 48.2672 19.216C47.1472 19.216 46.1232 18.928 45.1952 18.352C44.2832 17.776 43.5552 16.968 43.0112 15.928C42.4832 14.872 42.2192 13.664 42.2192 12.304ZM52.6832 12.352C52.6832 11.536 52.5232 10.84 52.2032 10.264C51.8832 9.672 51.4512 9.224 50.9072 8.92C50.3632 8.6 49.7792 8.44 49.1552 8.44C48.5312 8.44 47.9552 8.592 47.4272 8.896C46.8992 9.2 46.4672 9.648 46.1312 10.24C45.8112 10.816 45.6512 11.504 45.6512 12.304C45.6512 13.104 45.8112 13.808 46.1312 14.416C46.4672 15.008 46.8992 15.464 47.4272 15.784C47.9712 16.104 48.5472 16.264 49.1552 16.264C49.7792 16.264 50.3632 16.112 50.9072 15.808C51.4512 15.488 51.8832 15.04 52.2032 14.464C52.5232 13.872 52.6832 13.168 52.6832 12.352ZM58.4849 12.352C58.4849 10.976 58.7649 9.776 59.3249 8.752C59.8849 7.712 60.6609 6.912 61.6529 6.352C62.6449 5.776 63.7809 5.488 65.0609 5.488C66.7089 5.488 68.0689 5.904 69.1409 6.736C70.2289 7.552 70.9569 8.704 71.3249 10.192H67.7009C67.5089 9.616 67.1809 9.168 66.7169 8.848C66.2689 8.512 65.7089 8.344 65.0369 8.344C64.0769 8.344 63.3169 8.696 62.7569 9.4C62.1969 10.088 61.9169 11.072 61.9169 12.352C61.9169 13.616 62.1969 14.6 62.7569 15.304C63.3169 15.992 64.0769 16.336 65.0369 16.336C66.3969 16.336 67.2849 15.728 67.7009 14.512H71.3249C70.9569 15.952 70.2289 17.096 69.1409 17.944C68.0529 18.792 66.6929 19.216 65.0609 19.216C63.7809 19.216 62.6449 18.936 61.6529 18.376C60.6609 17.8 59.8849 17 59.3249 15.976C58.7649 14.936 58.4849 13.728 58.4849 12.352ZM86.5064 5.704L78.2744 25.288H74.6984L77.5784 18.664L72.2504 5.704H76.0184L79.4504 14.992L82.9304 5.704H86.5064ZM91.6776 16.336H97.1976V19H88.3176V2.248H91.6776V16.336ZM101.037 4.12C100.445 4.12 99.9492 3.936 99.5492 3.568C99.1652 3.184 98.9732 2.712 98.9732 2.152C98.9732 1.592 99.1652 1.128 99.5492 0.759999C99.9492 0.375999 100.445 0.183999 101.037 0.183999C101.629 0.183999 102.117 0.375999 102.501 0.759999C102.901 1.128 103.101 1.592 103.101 2.152C103.101 2.712 102.901 3.184 102.501 3.568C102.117 3.936 101.629 4.12 101.037 4.12ZM102.693 5.704V19H99.3332V5.704H102.693ZM113.381 5.512C114.965 5.512 116.245 6.016 117.221 7.024C118.197 8.016 118.685 9.408 118.685 11.2V19H115.325V11.656C115.325 10.6 115.061 9.792 114.533 9.232C114.005 8.656 113.285 8.368 112.373 8.368C111.445 8.368 110.709 8.656 110.165 9.232C109.637 9.792 109.373 10.6 109.373 11.656V19H106.013V5.704H109.373V7.36C109.821 6.784 110.389 6.336 111.077 6.016C111.781 5.68 112.549 5.512 113.381 5.512ZM134.24 12.064C134.24 12.544 134.208 12.976 134.144 13.36H124.424C124.504 14.32 124.84 15.072 125.432 15.616C126.024 16.16 126.752 16.432 127.616 16.432C128.864 16.432 129.752 15.896 130.28 14.824H133.904C133.52 16.104 132.784 17.16 131.696 17.992C130.608 18.808 129.272 19.216 127.688 19.216C126.408 19.216 125.256 18.936 124.232 18.376C123.224 17.8 122.432 16.992 121.856 15.952C121.296 14.912 121.016 13.712 121.016 12.352C121.016 10.976 121.296 9.768 121.856 8.728C122.416 7.688 123.2 6.888 124.208 6.328C125.216 5.768 126.376 5.488 127.688 5.488C128.952 5.488 130.08 5.76 131.072 6.304C132.08 6.848 132.856 7.624 133.4 8.632C133.96 9.624 134.24 10.768 134.24 12.064ZM130.76 11.104C130.744 10.24 130.432 9.552 129.824 9.04C129.216 8.512 128.472 8.248 127.592 8.248C126.76 8.248 126.056 8.504 125.48 9.016C124.92 9.512 124.576 10.208 124.448 11.104H130.76ZM138.181 19.168C137.573 19.168 137.069 18.984 136.669 18.616C136.285 18.232 136.093 17.76 136.093 17.2C136.093 16.64 136.285 16.176 136.669 15.808C137.069 15.424 137.573 15.232 138.181 15.232C138.773 15.232 139.261 15.424 139.645 15.808C140.029 16.176 140.221 16.64 140.221 17.2C140.221 17.76 140.029 18.232 139.645 18.616C139.261 18.984 138.773 19.168 138.181 19.168Z" fill="white"/>
</svg>
