<svg width="15" height="15" viewBox="0 0 15 15" fill="none" xmlns="http://www.w3.org/2000/svg">
<g id="send 2">
<path id="Vector" d="M12.5126 2.10628L6.19508 8.44712C6.12266 8.40516 6.0465 8.37001 5.96758 8.34212L1.79675 6.93045C1.67061 6.89884 1.55866 6.82599 1.47867 6.72347C1.39867 6.62095 1.35522 6.49465 1.35522 6.36462C1.35522 6.23458 1.39867 6.10828 1.47867 6.00576C1.55866 5.90324 1.67061 5.83039 1.79675 5.79878L12.1451 2.11795C12.2127 2.09498 12.2836 2.08316 12.3551 2.08295C12.4085 2.08209 12.4617 2.08997 12.5126 2.10628Z" fill="#84829A"/>
<path id="Vector_2" d="M12.9151 2.88789L9.23422 13.2479C9.19363 13.3686 9.11464 13.4728 9.00931 13.5444C8.90397 13.616 8.77809 13.6512 8.65089 13.6446C8.52222 13.6504 8.39521 13.6136 8.28969 13.5397C8.18417 13.4659 8.10606 13.3591 8.06755 13.2362L6.67922 9.06539C6.65133 8.98647 6.61618 8.91031 6.57422 8.83789L12.9267 2.52039C12.9626 2.64094 12.9585 2.76985 12.9151 2.88789Z" fill="#84829A"/>
</g>
</svg>
