<svg width="17" height="17" viewBox="0 0 17 17" fill="none" xmlns="http://www.w3.org/2000/svg">
<g id="building 1">
<g id="Group">
<g id="Group_2">
<g id="Group_3">
<path id="Vector" d="M0.435855 16.3304H2.03586V7.53044C2.03586 7.38317 2.15526 7.26377 2.30252 7.26377H6.03586V1.13044C6.03586 0.98317 6.15526 0.86377 6.30252 0.86377H13.2359C13.3831 0.86377 13.5025 0.98317 13.5025 1.13044V16.3304H15.9025C16.0498 16.3304 16.1692 16.4498 16.1692 16.5971C16.1692 16.7444 16.0498 16.8638 15.9025 16.8638H0.435855C0.288589 16.8638 0.169189 16.7444 0.169189 16.5971C0.169189 16.4498 0.288589 16.3304 0.435855 16.3304ZM10.5692 16.3304H11.6359V13.9304C11.6359 13.7832 11.5165 13.6638 11.3692 13.6638H10.8359C10.6886 13.6638 10.5692 13.7832 10.5692 13.9304V16.3304ZM9.50252 7.53044V16.3304H10.0359V13.9304C10.0359 13.4886 10.394 13.1304 10.8359 13.1304H11.3692C11.811 13.1304 12.1692 13.4886 12.1692 13.9304V16.3304H12.9692V1.3971H6.56919V7.26377H9.23586C9.38312 7.26377 9.50252 7.38317 9.50252 7.53044ZM2.56919 16.3304H8.96919V7.7971H2.56919V16.3304Z" fill="#84829A"/>
<path id="Vector_2" d="M7.63577 4.59717H9.23577C9.38304 4.59717 9.50244 4.71657 9.50244 4.86383V6.46383C9.50244 6.6111 9.38304 6.7305 9.23577 6.7305H7.63577C7.48851 6.7305 7.36911 6.6111 7.36911 6.46383V4.86383C7.36911 4.71657 7.48851 4.59717 7.63577 4.59717ZM7.90244 6.19717H8.96911V5.1305H7.90244V6.19717Z" fill="#84829A"/>
<path id="Vector_3" d="M7.63577 1.93042H9.23577C9.38304 1.93042 9.50244 2.04982 9.50244 2.19709V3.79709C9.50244 3.94435 9.38304 4.06375 9.23577 4.06375H7.63577C7.48851 4.06375 7.36911 3.94435 7.36911 3.79709V2.19709C7.36911 2.04982 7.48851 1.93042 7.63577 1.93042ZM7.90244 3.53042H8.96911V2.46375H7.90244V3.53042Z" fill="#84829A"/>
<path id="Vector_4" d="M10.3025 4.59717H11.9025C12.0498 4.59717 12.1692 4.71657 12.1692 4.86383V6.46383C12.1692 6.6111 12.0498 6.7305 11.9025 6.7305H10.3025C10.1553 6.7305 10.0359 6.6111 10.0359 6.46383V4.86383C10.0359 4.71657 10.1553 4.59717 10.3025 4.59717ZM10.5692 6.19717H11.6359V5.1305H10.5692V6.19717Z" fill="#84829A"/>
<path id="Vector_5" d="M10.3025 1.93042H11.9025C12.0498 1.93042 12.1692 2.04982 12.1692 2.19709V3.79709C12.1692 3.94435 12.0498 4.06375 11.9025 4.06375H10.3025C10.1553 4.06375 10.0359 3.94435 10.0359 3.79709V2.19709C10.0359 2.04982 10.1553 1.93042 10.3025 1.93042ZM10.5692 3.53042H11.6359V2.46375H10.5692V3.53042Z" fill="#84829A"/>
<path id="Vector_6" d="M10.3025 7.26367H11.9025C12.0498 7.26367 12.1692 7.38307 12.1692 7.53034V9.13034C12.1692 9.27761 12.0498 9.39701 11.9025 9.39701H10.3025C10.1553 9.39701 10.0359 9.27761 10.0359 9.13034V7.53034C10.0359 7.38307 10.1553 7.26367 10.3025 7.26367ZM10.5692 8.86367H11.6359V7.79701H10.5692V8.86367Z" fill="#84829A"/>
<path id="Vector_7" d="M10.3025 9.93042H11.9025C12.0498 9.93042 12.1692 10.0498 12.1692 10.1971V11.7971C12.1692 11.9444 12.0498 12.0638 11.9025 12.0638H10.3025C10.1553 12.0638 10.0359 11.9444 10.0359 11.7971V10.1971C10.0359 10.0498 10.1553 9.93042 10.3025 9.93042ZM10.5692 11.5304H11.6359V10.4638H10.5692V11.5304Z" fill="#84829A"/>
<path id="Vector_8" d="M5.23577 13.1304H3.63577C3.48851 13.1304 3.36911 13.011 3.36911 12.8637V11.2637C3.36911 11.1165 3.48851 10.9971 3.63577 10.9971H5.23577C5.38304 10.9971 5.50244 11.1165 5.50244 11.2637V12.8637C5.50244 13.011 5.38304 13.1304 5.23577 13.1304ZM4.96911 11.5304H3.90244V12.5971H4.96911V11.5304Z" fill="#84829A"/>
<path id="Vector_9" d="M5.23577 10.4637H3.63577C3.48851 10.4637 3.36911 10.3443 3.36911 10.197V8.59699C3.36911 8.44972 3.48851 8.33032 3.63577 8.33032H5.23577C5.38304 8.33032 5.50244 8.44972 5.50244 8.59699V10.197C5.50244 10.3443 5.38304 10.4637 5.23577 10.4637ZM4.96911 8.86366H3.90244V9.93032H4.96911V8.86366Z" fill="#84829A"/>
<path id="Vector_10" d="M5.23577 15.7972H3.63577C3.48851 15.7972 3.36911 15.6778 3.36911 15.5305V13.9305C3.36911 13.7832 3.48851 13.6638 3.63577 13.6638H5.23577C5.38304 13.6638 5.50244 13.7832 5.50244 13.9305V15.5305C5.50244 15.6778 5.38304 15.7972 5.23577 15.7972ZM4.96911 14.1972H3.90244V15.2638H4.96911V14.1972Z" fill="#84829A"/>
<path id="Vector_11" d="M7.90252 13.1304H6.30252C6.15526 13.1304 6.03586 13.011 6.03586 12.8637V11.2637C6.03586 11.1165 6.15526 10.9971 6.30252 10.9971H7.90252C8.04979 10.9971 8.16919 11.1165 8.16919 11.2637V12.8637C8.16919 13.011 8.04979 13.1304 7.90252 13.1304ZM7.63586 11.5304H6.56919V12.5971H7.63586V11.5304Z" fill="#84829A"/>
<path id="Vector_12" d="M7.90252 10.4637H6.30252C6.15526 10.4637 6.03586 10.3443 6.03586 10.197V8.59699C6.03586 8.44972 6.15526 8.33032 6.30252 8.33032H7.90252C8.04979 8.33032 8.16919 8.44972 8.16919 8.59699V10.197C8.16919 10.3443 8.04979 10.4637 7.90252 10.4637ZM7.63586 8.86366H6.56919V9.93032H7.63586V8.86366Z" fill="#84829A"/>
<path id="Vector_13" d="M7.90252 15.7972H6.30252C6.15526 15.7972 6.03586 15.6778 6.03586 15.5305V13.9305C6.03586 13.7832 6.15526 13.6638 6.30252 13.6638H7.90252C8.04979 13.6638 8.16919 13.7832 8.16919 13.9305V15.5305C8.16919 15.6778 8.04979 15.7972 7.90252 15.7972ZM7.63586 14.1972H6.56919V15.2638H7.63586V14.1972Z" fill="#84829A"/>
</g>
</g>
</g>
</g>
</svg>
